<svg width="130" height="24" viewBox="0 0 130 24" fill="none" xmlns="http://www.w3.org/2000/svg">
<path opacity="0.8" d="M26.4159 6.55617C21.7385 6.55617 18.0838 10.1069 18.0838 14.8602C18.0838 19.6135 21.6462 23.1338 26.4159 23.1338C31.1856 23.1338 34.8099 19.5528 34.8099 14.8298C34.8099 10.1372 31.2475 6.55617 26.4159 6.55617ZM26.4474 19.7082C23.7838 19.7082 21.832 17.6395 21.832 14.8614C21.832 12.0517 23.7523 9.98414 26.4159 9.98414C29.111 9.98414 31.0617 12.0832 31.0617 14.8614C31.0617 17.6395 29.111 19.7082 26.4474 19.7082ZM35.8314 10.1688H38.1549V22.8265H41.8715V6.86472H35.8314V10.1688ZM8.73021 9.98297C10.682 9.98297 12.2306 11.1868 12.8185 12.9773H16.7526C16.0396 9.14964 12.8805 6.55617 8.76176 6.55617C4.08439 6.55617 0.429688 10.1069 0.429688 14.8614C0.429688 19.6159 3.99206 23.135 8.76176 23.135C12.7881 23.135 16.0092 20.5415 16.7222 16.6823H12.8185C12.261 18.4728 10.7124 19.7082 8.7606 19.7082C6.06544 19.7082 4.17673 17.6395 4.17673 14.8614C4.1779 12.0517 6.03622 9.98297 8.73021 9.98297ZM106.45 13.3174L103.725 12.9166C102.424 12.7319 101.495 12.2994 101.495 11.2803C101.495 10.1688 102.703 9.61364 104.344 9.61364C106.14 9.61364 107.287 10.385 107.535 11.6508H111.127C110.724 8.44021 108.246 6.55734 104.437 6.55734C100.503 6.55734 97.9018 8.5641 97.9018 11.4042C97.9018 14.1204 99.6058 15.6959 103.043 16.1891L105.769 16.59C107.101 16.7746 107.844 17.3006 107.844 18.2882C107.844 19.5539 106.544 20.0787 104.747 20.0787C102.548 20.0787 101.309 19.1834 101.123 17.8253H97.4682C97.8095 20.9436 100.256 23.135 104.716 23.135C108.774 23.135 111.468 21.2825 111.468 18.1023C111.468 15.2623 109.517 13.7803 106.45 13.3174ZM40.0132 0.289286C38.6504 0.289286 37.6278 1.27689 37.6278 2.63498C37.6278 3.99308 38.6493 4.98068 40.0132 4.98068C41.376 4.98068 42.3986 3.99308 42.3986 2.63498C42.3986 1.27689 41.376 0.289286 40.0132 0.289286ZM94.5568 12.3298C94.5568 8.87265 92.4507 6.55734 87.9907 6.55734C83.7785 6.55734 81.4246 8.68799 80.9595 11.9605H84.6457C84.8316 10.6947 85.8227 9.6452 87.9288 9.6452C89.8187 9.6452 90.7478 10.4785 90.7478 11.4977C90.7478 12.8254 89.0438 13.1643 86.9377 13.3806C84.0882 13.6891 80.5574 14.6767 80.5574 18.3817C80.5574 21.2533 82.6951 23.1046 86.102 23.1046C88.7656 23.1046 90.4381 21.9931 91.2749 20.233C91.3988 21.8073 92.5758 22.8265 94.2179 22.8265H96.3859V19.5235H94.558V12.3298H94.5568ZM90.9021 16.3434C90.9021 18.474 89.0438 20.0483 86.7822 20.0483C85.3879 20.0483 84.211 19.4616 84.211 18.2274C84.211 16.6531 86.1008 16.2206 87.8353 16.036C89.5078 15.8817 90.4369 15.5112 90.9021 14.8006V16.3434ZM71.1723 6.55617C69.0966 6.55617 67.3621 7.42105 66.1232 8.87148V0.13501H62.4066V22.8265H66.0613V20.7274C67.3002 22.2397 69.0662 23.135 71.1723 23.135C75.6323 23.135 79.0088 19.6159 79.0088 14.8614C79.0088 10.1069 75.5703 6.55617 71.1723 6.55617ZM70.6148 19.7082C67.9512 19.7082 65.9994 17.6395 65.9994 14.8614C65.9994 12.0832 67.9816 9.98414 70.6452 9.98414C73.3403 9.98414 75.229 12.0528 75.229 14.8614C75.229 17.6395 73.2784 19.7082 70.6148 19.7082ZM53.517 6.55617C51.1012 6.55617 49.521 7.54377 48.5919 8.93342V6.86472H44.9056V22.8253H48.6223V14.1508C48.6223 11.7116 50.1709 9.98297 52.4628 9.98297C54.6005 9.98297 55.9317 11.4953 55.9317 13.6879V22.8265H59.6483V13.4109C59.6495 9.39625 57.575 6.55617 53.517 6.55617ZM129.185 14.3366C129.185 9.76792 125.84 6.55734 121.348 6.55734C116.579 6.55734 113.078 10.1384 113.078 14.8614C113.078 19.8321 116.826 23.135 121.41 23.135C125.282 23.135 128.318 20.8501 129.091 17.6091H125.219C124.662 19.0292 123.299 19.8321 121.471 19.8321C119.086 19.8321 117.289 18.3501 116.887 15.7566H129.184V14.3366H129.185ZM117.104 13.1012C117.694 10.8782 119.366 9.79831 121.286 9.79831C123.392 9.79831 125.003 11.0021 125.375 13.1012H117.104Z" fill="#004FF7"/>
</svg>
