<svg width="152" height="36" viewBox="0 0 152 36" fill="none" xmlns="http://www.w3.org/2000/svg">
<path opacity="0.8" d="M26.837 17.6348L18.0195 26.4522H35.6545L26.837 17.6348Z" fill="#FEBC11"/>
<path d="M9.20224 17.6349L0.384766 8.81738V26.4523L9.20224 17.6349Z" fill="#FEBC11" fill-opacity="0.55"/>
<path opacity="0.8" d="M26.837 17.6349L35.6545 8.81738H18.0195L26.837 17.6349Z" fill="#FEBC11"/>
<path d="M18.0187 8.81748L26.8361 0H9.20117L18.0187 8.81748Z" fill="#FEBC11" fill-opacity="0.75"/>
<path opacity="0.8" d="M26.837 35.2701L35.6545 26.4526H18.0195L26.837 35.2701Z" fill="#FEBC11"/>
<path opacity="0.7" d="M9.20224 35.2701L18.0197 26.4526H0.384766L9.20224 35.2701Z" fill="#FEBC11"/>
<path opacity="0.8" d="M26.837 0L18.0195 8.81748H35.6545L26.837 0Z" fill="#FEBC11"/>
<path opacity="0.7" d="M0.384766 8.81748H18.0197L9.20224 0L0.384766 8.81748Z" fill="#FEBC11"/>
<path d="M18.0187 26.4526L9.20117 35.2701H26.8361L18.0187 26.4526Z" fill="#FEBC11" fill-opacity="0.75"/>
<path d="M9.20224 17.6348L0.384766 26.4522H18.0197L9.20224 17.6348Z" fill="#FEBC11" fill-opacity="0.6"/>
<path d="M18.0197 8.81738H0.384766L9.20224 17.6349L18.0197 8.81738Z" fill="#FEBC11" fill-opacity="0.6"/>
<path opacity="0.8" fill-rule="evenodd" clip-rule="evenodd" d="M45.8949 20.8772C46.3614 20.8772 46.7113 20.7372 46.9446 20.4806C47.1779 20.224 47.2945 19.8508 47.2945 19.3376H50.5136L50.5369 19.4076C50.6069 20.5506 50.117 21.6703 49.2539 22.4167C48.3209 23.2098 47.1312 23.6297 45.8949 23.5831C44.1687 23.5831 42.8624 23.0465 41.9294 21.9968C40.973 20.8305 40.4598 19.3609 40.5298 17.868V17.6348C40.5298 15.9552 40.9963 14.579 41.9294 13.5059C42.8391 12.4329 44.1687 11.9197 45.8716 11.9197C47.2945 11.9197 48.4375 12.3163 49.3006 13.1094C50.187 13.9491 50.6302 15.1621 50.5602 16.3751L50.5369 16.4451H47.3178C47.3412 15.9786 47.2012 15.512 46.9679 15.1388C46.7347 14.8122 46.3848 14.6489 45.8949 14.6489C45.2184 14.6489 44.7519 14.9289 44.4953 15.4654C44.1921 16.1652 44.0521 16.9116 44.0987 17.6581V17.8913C44.0987 18.8244 44.2387 19.5709 44.4953 20.1074C44.7286 20.5972 45.2184 20.8772 45.8949 20.8772ZM58.3747 15.2088H57.0917C56.6951 15.2088 56.3686 15.2788 56.112 15.3954C55.8554 15.5354 55.6688 15.722 55.5521 15.9786V23.3731H52.0298V12.1063H55.3422L55.4588 13.7625C55.6454 13.226 55.972 12.7595 56.4152 12.3863C56.7885 12.0597 57.2783 11.8964 57.7682 11.8964C58.0947 11.8964 58.4213 11.943 58.7479 12.013L58.3747 15.2088ZM65.0694 18.4045V18.4978H65.1394L67.0055 12.1063H70.7611L66.2591 25.0293C65.9092 25.8691 65.466 26.5455 64.9061 27.0821C64.3463 27.6186 63.4832 27.8985 62.2702 27.8985C61.967 27.8985 61.7104 27.8752 61.5238 27.8285C61.3371 27.8052 61.0339 27.7352 60.614 27.6186L61.0339 25.1226L61.2438 25.1693L61.4305 25.1926C61.9903 25.1926 62.3868 25.0993 62.6434 24.936C62.9 24.7727 63.0866 24.5161 63.2266 24.1895L63.5065 23.4664L59.5877 12.083H63.3432L65.0694 18.4045ZM78.6222 17.7514C78.6222 16.8183 78.4822 16.0252 78.2023 15.4654C77.9224 14.8822 77.4792 14.6023 76.8727 14.6023C76.4762 14.6023 76.1263 14.6723 75.8697 14.8122C75.5897 14.9522 75.3798 15.1621 75.2165 15.442V20.154C75.3798 20.3873 75.6131 20.5739 75.8697 20.6905C76.1962 20.8072 76.5461 20.8772 76.896 20.8538C77.5259 20.8538 77.9457 20.5972 78.2257 20.0841C78.5289 19.4076 78.6689 18.6844 78.6222 17.938V17.7514ZM82.1445 17.9613C82.1445 19.6642 81.748 21.0171 81.0015 22.0435C80.2551 23.0699 79.0421 23.6297 77.7824 23.5831C76.7794 23.6064 75.8463 23.1632 75.2398 22.3701V27.6885H71.7175V12.1063H75.0066L75.1465 13.3426C75.7064 12.4329 76.7094 11.8731 77.7824 11.8964C79.182 11.8964 80.2551 12.4329 81.0249 13.5059C81.8413 14.7656 82.2378 16.2585 82.1679 17.7514V17.9613H82.1445ZM87.8596 9.30713V12.1063H89.7724V14.5323H87.8596V19.7108C87.8596 20.1074 87.9529 20.3873 88.0928 20.5739C88.2561 20.7605 88.5127 20.8538 88.746 20.8538C89.0959 20.8538 89.4458 20.8305 89.7724 20.7605L90.0056 23.3731C89.3058 23.5364 88.5827 23.6297 87.8362 23.6297C86.6699 23.6297 85.8068 23.3031 85.2003 22.6966C84.5938 22.0901 84.2906 21.1104 84.2906 19.7808V14.579H82.7044V12.153H84.2906V9.35379H87.8596V9.30713ZM94.1811 17.8447C94.1811 18.7778 94.321 19.5242 94.6243 20.0607C94.9275 20.5972 95.4174 20.8538 96.1405 20.8538C96.8403 20.8538 97.3302 20.5972 97.6101 20.0374C97.9134 19.5009 98.0533 18.7544 98.0533 17.8214V17.5881C98.0766 16.8183 97.9367 16.0719 97.6101 15.3954C97.3069 14.8356 96.817 14.579 96.0939 14.579C95.3941 14.579 94.9042 14.8589 94.6243 15.4187C94.321 15.9786 94.1811 16.7017 94.1811 17.6114V17.8447ZM90.6588 17.6348C90.5888 16.1185 91.102 14.6489 92.105 13.5059C93.0614 12.4329 94.4144 11.8964 96.1172 11.8964C97.8434 11.8964 99.173 12.4329 100.129 13.5059C101.109 14.6489 101.646 16.1185 101.576 17.6348V17.868C101.576 19.5709 101.086 20.9471 100.129 21.9968C99.173 23.0699 97.8434 23.5831 96.1172 23.5831C94.391 23.5831 93.0381 23.0465 92.0817 21.9968C91.102 20.8538 90.5888 19.3609 90.6588 17.868V17.6348ZM106.381 12.1063L106.521 13.6925C106.894 13.1327 107.337 12.6895 107.897 12.3863C108.457 12.0597 109.063 11.8964 109.693 11.9197C110.813 11.9197 111.676 12.2696 112.283 12.9927C112.912 13.7159 113.216 14.8589 113.216 16.4218V23.3964H109.693V16.3984C109.693 15.7453 109.553 15.3021 109.297 15.0222C109.04 14.7656 108.644 14.6256 108.107 14.6256C107.524 14.6023 106.964 14.8589 106.591 15.3021V23.3964H103.092V12.1297H106.381V12.1063ZM120.05 14.6023C119.537 14.6023 119.164 14.7656 118.907 15.1388C118.651 15.4887 118.511 15.9786 118.441 16.5851L118.464 16.6317H121.497V16.3751C121.497 15.7919 121.38 15.3721 121.147 15.0688C120.913 14.7422 120.564 14.6023 120.05 14.6023ZM120.307 23.5831C118.627 23.5831 117.321 23.0699 116.318 22.0202C115.315 20.9705 114.779 19.5475 114.825 18.1013V17.7047C114.825 15.9786 115.268 14.579 116.178 13.5059C117.088 12.4329 118.371 11.8731 120.05 11.8964C121.59 11.8964 122.78 12.3629 123.643 13.2727C124.552 14.299 125.019 15.6287 124.949 16.9816V18.8244H118.487L118.464 18.8944C118.557 19.4776 118.767 19.9441 119.187 20.3173C119.584 20.6905 120.097 20.8772 120.773 20.8772C121.847 20.9005 122.92 20.6672 123.899 20.1774L124.739 22.3234C124.156 22.72 123.503 23.0232 122.826 23.2332C122.033 23.4664 121.193 23.5831 120.307 23.5831ZM136.146 18.6378H136.216L137.429 12.1063H140.671L138.012 23.3731H135.026L133.183 17.4015H133.113L131.27 23.3731H128.285L125.625 12.1063H128.868L130.104 18.6845H130.174L132.017 12.1063H134.233L136.146 18.6378ZM147.809 20.2007C147.809 19.9208 147.646 19.6875 147.343 19.4542C146.806 19.151 146.223 18.9644 145.616 18.8711C144.543 18.7078 143.517 18.3112 142.631 17.6581C141.954 17.1216 141.604 16.3051 141.628 15.442C141.628 14.4623 142.094 13.5293 142.887 12.9228C143.727 12.2463 144.87 11.8964 146.27 11.8964C147.786 11.8964 148.975 12.223 149.862 12.8994C150.702 13.4826 151.191 14.4623 151.145 15.4887L151.121 15.5587H147.716C147.716 15.1155 147.599 14.7889 147.366 14.5556C147.133 14.3224 146.783 14.2057 146.293 14.2057C145.92 14.2057 145.616 14.299 145.36 14.509C145.127 14.6956 144.987 14.9755 144.987 15.2788C145.01 15.582 145.15 15.8619 145.406 16.0252C145.943 16.3285 146.549 16.5151 147.156 16.5851C148.252 16.7483 149.302 17.1682 150.212 17.798C150.888 18.3579 151.261 19.1976 151.191 20.0841C151.191 21.0871 150.748 21.9269 149.839 22.58C148.789 23.2798 147.529 23.6297 146.27 23.5597C144.73 23.5597 143.517 23.1632 142.631 22.3934C141.744 21.6236 141.301 20.7372 141.348 19.7808L141.371 19.7108H144.567C144.59 20.2473 144.73 20.6206 145.057 20.8538C145.36 21.0871 145.803 21.2037 146.363 21.2037C146.829 21.2037 147.203 21.1104 147.436 20.9238C147.692 20.8072 147.809 20.5273 147.809 20.2007Z" fill="#191C1E"/>
</svg>
