<svg width="21" height="21" viewBox="0 0 21 21" fill="none" xmlns="http://www.w3.org/2000/svg">
<path d="M18.556 0.078125H2.22135C1.22201 0.078125 0.388672 0.911458 0.388672 1.91081V18.2454C0.388672 19.2448 1.22201 20.0781 2.22135 20.0781H18.556C19.5553 20.0781 20.3887 19.2448 20.3887 18.2454V1.91081C20.3887 0.911458 19.5553 0.078125 18.556 0.078125ZM6.222 16.7448H2.88867V7.57812H6.222V16.7448ZM4.55534 6.49414C3.55599 6.49414 2.88867 5.82682 2.88867 4.99349C2.88867 4.07878 3.55599 3.41146 4.55534 3.41146C5.55469 3.41146 6.222 4.07878 6.222 4.91211C6.222 5.82682 5.55469 6.49414 4.55534 6.49414ZM17.8887 16.7448H14.5553V11.7448C14.5553 10.4102 13.6374 10.0781 13.39 10.0781C13.1393 10.0781 12.0553 10.2441 12.0553 11.7448C12.0553 11.9108 12.0553 16.7448 12.0553 16.7448H8.722V7.57812H12.0553V8.91276C12.5566 8.16081 13.39 7.57812 14.972 7.57812C16.554 7.57812 17.8887 8.82812 17.8887 11.7448V16.7448Z" fill="#65676B"/>
</svg>
