<svg width="21" height="21" viewBox="0 0 21 21" fill="none" xmlns="http://www.w3.org/2000/svg">
<path d="M13.5887 10.0781C13.5887 10.711 13.401 11.3297 13.0494 11.8559C12.6978 12.3822 12.198 12.7923 11.6133 13.0345C11.0285 13.2767 10.3851 13.3401 9.76438 13.2166C9.14364 13.0932 8.57346 12.7884 8.12593 12.3409C7.6784 11.8933 7.37363 11.3232 7.25016 10.7024C7.12669 10.0817 7.19006 9.43826 7.43226 8.85354C7.67446 8.26881 8.08461 7.76904 8.61085 7.41742C9.13708 7.0658 9.75577 6.87813 10.3887 6.87813C11.2371 6.8791 12.0504 7.21655 12.6503 7.81646C13.2502 8.41636 13.5877 9.22973 13.5887 10.0781ZM20.3887 5.67812V14.4781C20.387 15.9628 19.7965 17.3862 18.7466 18.4361C17.6968 19.4859 16.2734 20.0764 14.7887 20.0781H5.98867C4.50398 20.0764 3.08057 19.4859 2.03073 18.4361C0.980892 17.3862 0.390353 15.9628 0.388672 14.4781V5.67812C0.390353 4.19343 0.980892 2.77002 2.03073 1.72018C3.08057 0.670345 4.50398 0.0798065 5.98867 0.078125H14.7887C16.2734 0.0798065 17.6968 0.670345 18.7466 1.72018C19.7965 2.77002 20.387 4.19343 20.3887 5.67812ZM15.1887 10.0781C15.1887 9.12877 14.9072 8.20074 14.3797 7.41139C13.8523 6.62203 13.1026 6.0068 12.2256 5.6435C11.3485 5.2802 10.3833 5.18515 9.45224 5.37036C8.52113 5.55557 7.66585 6.01272 6.99456 6.68401C6.32327 7.3553 5.86611 8.21058 5.6809 9.14169C5.49569 10.0728 5.59075 11.0379 5.95405 11.915C6.31735 12.7921 6.93258 13.5417 7.72193 14.0692C8.51129 14.5966 9.43932 14.8781 10.3887 14.8781C11.6613 14.8767 12.8813 14.3705 13.7812 13.4706C14.6811 12.5708 15.1872 11.3507 15.1887 10.0781ZM16.7887 4.87813C16.7887 4.64079 16.7183 4.40878 16.5864 4.21144C16.4546 4.0141 16.2672 3.86029 16.0479 3.76947C15.8286 3.67864 15.5873 3.65488 15.3546 3.70118C15.1218 3.74748 14.908 3.86177 14.7401 4.0296C14.5723 4.19742 14.458 4.41124 14.4117 4.64402C14.3654 4.87679 14.3892 5.11807 14.48 5.33735C14.5708 5.55662 14.7246 5.74403 14.922 5.87589C15.1193 6.00775 15.3513 6.07812 15.5887 6.07812C15.9069 6.07812 16.2122 5.9517 16.4372 5.72665C16.6622 5.50161 16.7887 5.19638 16.7887 4.87813Z" fill="#65676B"/>
</svg>
