<svg width="21" height="21" viewBox="0 0 21 21" fill="none" xmlns="http://www.w3.org/2000/svg">
<path d="M20.3887 2.43608C19.6409 2.84801 18.8876 3.15341 18.0561 3.25284C18.8876 2.64205 19.5572 1.61222 19.8864 0.490058C19.055 1.10085 18.2235 1.51279 17.3083 1.71875C16.4713 0.696023 15.3887 0.078125 14.2224 0.078125C11.9735 0.078125 10.1376 2.33665 10.1376 5.10653C10.1376 5.51136 10.1376 5.9233 10.2213 6.2358C5.92439 6.2358 2.97796 3.15341 0.98019 0.078125C0.561663 0.795454 0.394252 1.71875 0.394252 2.64205C0.394252 4.3821 1.1476 5.9233 2.23019 6.84659C1.56055 6.74716 0.896485 6.54119 0.394252 6.2358C0.394252 6.2358 0.394252 6.2358 0.394252 6.33523C0.394252 8.79972 1.81166 10.8452 3.6476 11.2571C3.31278 11.3565 2.97796 11.4631 2.55943 11.4631C2.31389 11.4631 2.06278 11.4631 1.81166 11.3636C2.31389 13.4162 4.6409 15.7741 6.47126 15.7741C5.05385 17.1023 3.73689 18.2599 1.10296 18.2599C0.768136 18.2599 1.03599 18.2599 0.388672 18.2599C2.21903 19.6946 4.38979 20.0781 6.63867 20.0781C14.2224 20.0781 18.3072 12.3864 18.3072 5.71733C18.3072 5.51136 18.3072 5.3125 18.3072 5.10653C19.1387 4.3821 19.8083 3.46591 20.3887 2.43608Z" fill="#65676B"/>
</svg>
