<svg width="18" height="18" viewBox="0 0 18 18" fill="none" xmlns="http://www.w3.org/2000/svg">
<g clip-path="url(#clip0_211_11581)">
<path d="M16.3083 3.29099C15.2174 6.01099 12.4833 9.70849 10.1954 11.5431L8.79995 12.6622C8.62286 12.7897 8.44578 12.9031 8.24745 12.981C8.24745 12.8535 8.24036 12.7118 8.21911 12.5772C8.1412 11.9822 7.87203 11.4297 7.39745 10.9552C6.91578 10.4735 6.32786 10.1902 5.72578 10.1122C5.58411 10.1052 5.44245 10.091 5.30078 10.1052C5.3787 9.88558 5.49911 9.68016 5.64786 9.51016L6.75286 8.11474C8.58036 5.82682 12.292 3.07849 15.0049 1.99474C15.4229 1.83891 15.8266 1.95224 16.0816 2.21432C16.3508 2.47641 16.4783 2.88016 16.3083 3.29099Z" stroke="#F961D7" stroke-width="1.5" stroke-linecap="round" stroke-linejoin="round"/>
<path d="M8.24744 12.9803C8.24744 13.7595 7.94994 14.5032 7.39036 15.0699C6.95828 15.502 6.37036 15.7995 5.66911 15.8916L3.92661 16.0828C2.97744 16.1891 2.16286 15.3816 2.27619 14.4182L2.46744 12.6757C2.63744 11.1245 3.93369 10.1328 5.30786 10.1045C5.44953 10.0974 5.59828 10.1045 5.73286 10.1116C6.33494 10.1895 6.92286 10.4657 7.40453 10.9545C7.87911 11.4291 8.14828 11.9816 8.22619 12.5766C8.23328 12.7112 8.24744 12.8457 8.24744 12.9803Z" stroke="#F961D7" stroke-width="1.5" stroke-linecap="round" stroke-linejoin="round"/>
<path d="M10.9461 10.7498C10.9461 8.90108 9.44445 7.39941 7.5957 7.39941" stroke="#F961D7" stroke-width="1.5" stroke-linecap="round" stroke-linejoin="round"/>
<path d="M15.1113 9.51758L15.6355 10.0347C16.6909 11.0901 16.6909 12.1313 15.6355 13.1867L13.5388 15.2834C12.4975 16.3247 11.4421 16.3247 10.4009 15.2834" stroke="#F961D7" stroke-width="1.5" stroke-linecap="round"/>
<path d="M3.06268 7.94473C2.02143 6.88931 2.02143 5.84806 3.06268 4.79264L5.15934 2.69598C6.20059 1.65473 7.25601 1.65473 8.29726 2.69598L8.82143 3.22014" stroke="#F961D7" stroke-width="1.5" stroke-linecap="round"/>
<path d="M8.82835 3.22656L6.20752 5.8474" stroke="#F961D7" stroke-width="1.5" stroke-linecap="round"/>
<path d="M15.1113 9.51758L13.0146 11.6072" stroke="#F961D7" stroke-width="1.5" stroke-linecap="round"/>
</g>
<defs>
<clipPath id="clip0_211_11581">
<rect width="17" height="17" fill="white" transform="translate(0.859619 0.5)"/>
</clipPath>
</defs>
</svg>
