<svg width="21" height="26" viewBox="0 0 21 26" fill="none" xmlns="http://www.w3.org/2000/svg">
<g filter="url(#filter0_d_205_11503)">
<path d="M14.8164 1.5C14.8164 0.947715 14.3687 0.5 13.8164 0.5H5.19141C4.63912 0.5 4.19141 0.947715 4.19141 1.5V14.5078C4.19141 15.0601 4.63912 15.5078 5.19141 15.5078H13.8164C14.3687 15.5078 14.8164 15.0601 14.8164 14.5078V1.5ZM12.8203 1.49609C13.3726 1.49609 13.8203 1.94381 13.8203 2.49609V7.53516C13.8203 8.08744 13.3726 8.53516 12.8203 8.53516H6.1875C5.63522 8.53516 5.1875 8.08744 5.1875 7.53516V2.49609C5.1875 1.94381 5.63522 1.49609 6.1875 1.49609H12.8203ZM6.1875 14.5117C5.63522 14.5117 5.1875 14.064 5.1875 13.5117V10.5312C5.1875 9.97897 5.63522 9.53125 6.1875 9.53125H12.8203C13.3726 9.53125 13.8203 9.97896 13.8203 10.5312V13.5117C13.8203 14.064 13.3726 14.5117 12.8203 14.5117H6.1875Z" fill="#FCB1AE"/>
<path d="M16.3105 2.49219C16.0355 2.49219 15.8125 2.71517 15.8125 2.99023V14.5039C15.8125 15.6085 14.9171 16.5039 13.8125 16.5039H6.68164C6.40658 16.5039 6.18359 16.7269 6.18359 17.002C6.18359 17.277 6.40658 17.5 6.68164 17.5H14.8086C15.9132 17.5 16.8086 16.6046 16.8086 15.5V2.99023C16.8086 2.71517 16.5856 2.49219 16.3105 2.49219Z" fill="#FCB1AE"/>
<path d="M6.18359 13.0176C6.18359 12.7425 6.40658 12.5195 6.68164 12.5195H11.3301C11.6051 12.5195 11.8281 12.7425 11.8281 13.0176C11.8281 13.2926 11.6051 13.5156 11.3301 13.5156H6.68164C6.40658 13.5156 6.18359 13.2926 6.18359 13.0176Z" fill="#FCB1AE"/>
<path d="M6.18359 11.0254C6.18359 10.7503 6.40658 10.5273 6.68164 10.5273H12.3262C12.6012 10.5273 12.8242 10.7503 12.8242 11.0254C12.8242 11.3005 12.6012 11.5234 12.3262 11.5234H6.68164C6.40658 11.5234 6.18359 11.3005 6.18359 11.0254Z" fill="#FCB1AE"/>
<path d="M9.28085 6.18413C9.08634 6.37864 9.08636 6.69402 9.28088 6.88851C9.47538 7.08297 9.79068 7.08296 9.98516 6.88849C10.1796 6.694 10.495 6.694 10.6895 6.88849L10.9243 7.12329C11.1188 7.31781 11.4342 7.31781 11.6287 7.12329C11.8232 6.92878 11.8232 6.61341 11.6287 6.4189L11.3939 6.18409C11.1994 5.9896 11.1994 5.67428 11.3939 5.47979C11.5883 5.28531 11.5883 4.97 11.3939 4.77551C11.1994 4.58098 10.884 4.58097 10.6895 4.77548C10.495 4.96998 10.1796 4.96999 9.98513 4.77547L8.08344 2.87369C7.88894 2.67917 7.57357 2.67917 7.37906 2.87368C7.18454 3.0682 7.18455 3.38357 7.37906 3.57807L9.28085 5.47976C9.47536 5.67426 9.47535 5.98963 9.28085 6.18413Z" fill="#FCB1AE"/>
</g>
<defs>
<filter id="filter0_d_205_11503" x="0.191406" y="0.5" width="20.6172" height="25" filterUnits="userSpaceOnUse" color-interpolation-filters="sRGB">
<feFlood flood-opacity="0" result="BackgroundImageFix"/>
<feColorMatrix in="SourceAlpha" type="matrix" values="0 0 0 0 0 0 0 0 0 0 0 0 0 0 0 0 0 0 127 0" result="hardAlpha"/>
<feOffset dy="4"/>
<feGaussianBlur stdDeviation="2"/>
<feComposite in2="hardAlpha" operator="out"/>
<feColorMatrix type="matrix" values="0 0 0 0 0 0 0 0 0 0 0 0 0 0 0 0 0 0 0.25 0"/>
<feBlend mode="normal" in2="BackgroundImageFix" result="effect1_dropShadow_205_11503"/>
<feBlend mode="normal" in="SourceGraphic" in2="effect1_dropShadow_205_11503" result="shape"/>
</filter>
</defs>
</svg>
