<svg width="21" height="20" viewBox="0 0 21 20" fill="none" xmlns="http://www.w3.org/2000/svg">
<path d="M8.00008 18.3337H13.0001C17.1667 18.3337 18.8334 16.667 18.8334 12.5003V7.50032C18.8334 3.33366 17.1667 1.66699 13.0001 1.66699H8.00008C3.83341 1.66699 2.16675 3.33366 2.16675 7.50032V12.5003C2.16675 16.667 3.83341 18.3337 8.00008 18.3337Z" stroke="#FFA06B" stroke-width="1.5" stroke-linecap="round" stroke-linejoin="round"/>
<path d="M7.99992 8.33333C8.92039 8.33333 9.66658 7.58714 9.66658 6.66667C9.66658 5.74619 8.92039 5 7.99992 5C7.07944 5 6.33325 5.74619 6.33325 6.66667C6.33325 7.58714 7.07944 8.33333 7.99992 8.33333Z" stroke="#FFA06B" stroke-width="1.5" stroke-linecap="round" stroke-linejoin="round"/>
<path d="M2.7251 15.7918L6.83343 13.0335C7.49176 12.5918 8.44176 12.6418 9.03343 13.1501L9.30843 13.3918C9.95843 13.9501 11.0084 13.9501 11.6584 13.3918L15.1251 10.4168C15.7751 9.85846 16.8251 9.85846 17.4751 10.4168L18.8334 11.5835" stroke="#FFA06B" stroke-width="1.5" stroke-linecap="round" stroke-linejoin="round"/>
</svg>
