<svg width="17" height="18" viewBox="0 0 17 18" fill="none" xmlns="http://www.w3.org/2000/svg">
<path d="M14.3436 2.6249C12.702 2.625 11.0911 2.17878 9.68351 1.33396L9.30473 1.10712C9.22413 1.05869 9.13212 1.03253 9.0381 1.0313C8.94408 1.03006 8.85141 1.05381 8.76957 1.1001C8.68773 1.1464 8.61964 1.21359 8.57226 1.29481C8.52488 1.37603 8.4999 1.46837 8.49989 1.5624V10.6526C7.89691 10.0377 7.09902 9.65139 6.2427 9.55975C5.38637 9.4681 4.5248 9.67681 3.80535 10.1502C3.0859 10.6236 2.55327 11.3322 2.29854 12.1549C2.04382 12.9776 2.08283 13.8632 2.40891 14.6603C2.73499 15.4574 3.32787 16.1164 4.08616 16.5247C4.84445 16.933 5.72103 17.0651 6.56598 16.8985C7.41093 16.732 8.17176 16.277 8.71833 15.6114C9.2649 14.9459 9.56326 14.1111 9.56239 13.2499V5.67427C11.0328 6.4624 12.6753 6.87484 14.3436 6.8749C14.4845 6.8749 14.6197 6.81893 14.7193 6.7193C14.8189 6.61967 14.8749 6.48455 14.8749 6.34365V3.15615C14.8749 3.01525 14.8189 2.88013 14.7193 2.7805C14.6197 2.68087 14.4845 2.6249 14.3436 2.6249ZM5.84364 15.9061C5.31828 15.9061 4.80472 15.7504 4.3679 15.4585C3.93108 15.1666 3.59063 14.7518 3.38958 14.2664C3.18854 13.781 3.13593 13.247 3.23842 12.7317C3.34092 12.2164 3.5939 11.7431 3.96538 11.3716C4.33687 11.0002 4.81016 10.7472 5.32543 10.6447C5.84069 10.5422 6.37477 10.5948 6.86014 10.7958C7.3455 10.9969 7.76035 11.3373 8.05223 11.7742C8.3441 12.211 8.49989 12.7245 8.49989 13.2499C8.49904 13.9541 8.21892 14.6293 7.72096 15.1272C7.223 15.6252 6.54786 15.9053 5.84364 15.9061ZM13.8124 5.79699C12.3534 5.71141 10.9367 5.27395 9.68351 4.52199L9.56239 4.44921V2.48677C10.8745 3.19015 12.3257 3.59538 13.8124 3.67359V5.79699Z" fill="#0FC6D1"/>
</svg>
