<svg width="21" height="20" viewBox="0 0 21 20" fill="none" xmlns="http://www.w3.org/2000/svg">
<path d="M4.17497 13.958C3.97497 16.3663 5.79163 18.333 8.2083 18.333H12.2C14.9166 18.333 16.7833 16.1413 16.3333 13.458C15.8583 10.6413 13.1416 8.33301 10.2833 8.33301C7.1833 8.33301 4.4333 10.8663 4.17497 13.958Z" stroke="#5EB195" stroke-width="1.5" stroke-linecap="round" stroke-linejoin="round"/>
<path d="M9.22494 6.24967C10.3755 6.24967 11.3083 5.31693 11.3083 4.16634C11.3083 3.01575 10.3755 2.08301 9.22494 2.08301C8.07434 2.08301 7.1416 3.01575 7.1416 4.16634C7.1416 5.31693 8.07434 6.24967 9.22494 6.24967Z" stroke="#5EB195" stroke-width="1.5" stroke-linecap="round" stroke-linejoin="round"/>
<path d="M14.9167 7.25033C15.8371 7.25033 16.5833 6.50413 16.5833 5.58366C16.5833 4.66318 15.8371 3.91699 14.9167 3.91699C13.9962 3.91699 13.25 4.66318 13.25 5.58366C13.25 6.50413 13.9962 7.25033 14.9167 7.25033Z" stroke="#5EB195" stroke-width="1.5" stroke-linecap="round" stroke-linejoin="round"/>
<path d="M18 10.583C18.6904 10.583 19.25 10.0234 19.25 9.33301C19.25 8.64265 18.6904 8.08301 18 8.08301C17.3096 8.08301 16.75 8.64265 16.75 9.33301C16.75 10.0234 17.3096 10.583 18 10.583Z" stroke="#5EB195" stroke-width="1.5" stroke-linecap="round" stroke-linejoin="round"/>
<path d="M3.80827 8.91634C4.72874 8.91634 5.47493 8.17015 5.47493 7.24967C5.47493 6.3292 4.72874 5.58301 3.80827 5.58301C2.88779 5.58301 2.1416 6.3292 2.1416 7.24967C2.1416 8.17015 2.88779 8.91634 3.80827 8.91634Z" stroke="#5EB195" stroke-width="1.5" stroke-linecap="round" stroke-linejoin="round"/>
</svg>
