<svg width="21" height="18" viewBox="0 0 21 18" fill="none" xmlns="http://www.w3.org/2000/svg">
<path d="M18.3062 2.87209H14.3453L13.9601 1.71649C13.7175 0.988849 13.0392 0.5 12.2723 0.5H8.44712C7.68018 0.5 7.00188 0.988849 6.75934 1.71649L6.37411 2.87209H5.41784V1.88372C5.41784 1.12074 4.7971 0.5 4.03412 0.5H3.24342C2.48044 0.5 1.8597 1.12074 1.8597 1.88372V2.94373C0.927942 3.18916 0.23877 4.03877 0.23877 5.04651V15.3256C0.23877 16.5246 1.21421 17.5 2.41319 17.5H18.3062C19.5052 17.5 20.4806 16.5246 20.4806 15.3256V5.04651C20.4806 3.84754 19.5052 2.87209 18.3062 2.87209ZM3.04575 1.88372C3.04575 1.77472 3.13442 1.68605 3.24342 1.68605H4.03412C4.14312 1.68605 4.23179 1.77472 4.23179 1.88372V2.87209H3.04575V1.88372ZM19.2946 15.3256C19.2946 15.8706 18.8512 16.314 18.3062 16.314H2.41319C1.8682 16.314 1.42482 15.8706 1.42482 15.3256V5.04651C1.42482 4.50152 1.8682 4.05814 2.41319 4.05814H6.80156C7.0568 4.05814 7.28341 3.89482 7.36414 3.65263L7.8845 2.09156C7.96539 1.84901 8.19145 1.68605 8.44712 1.68605H12.2723C12.528 1.68605 12.7541 1.84901 12.8349 2.09152L13.3552 3.65263C13.436 3.89482 13.6626 4.05814 13.9178 4.05814H18.3062C18.8512 4.05814 19.2946 4.50152 19.2946 5.04651V15.3256Z" fill="#84BAF7"/>
<path d="M17.4761 6.43019C17.8036 6.43019 18.0691 6.16468 18.0691 5.83716C18.0691 5.50965 17.8036 5.24414 17.4761 5.24414C17.1486 5.24414 16.8831 5.50965 16.8831 5.83716C16.8831 6.16468 17.1486 6.43019 17.4761 6.43019Z" fill="#84BAF7"/>
<path d="M4.42946 5.24414H3.24341C2.91591 5.24414 2.65039 5.50966 2.65039 5.83716C2.65039 6.16467 2.91591 6.43019 3.24341 6.43019H4.42946C4.75697 6.43019 5.02248 6.16467 5.02248 5.83716C5.02248 5.50966 4.75697 5.24414 4.42946 5.24414Z" fill="#84BAF7"/>
<path d="M10.3597 15.1275C7.41673 15.1275 5.02246 12.7333 5.02246 9.79033C5.02246 6.8474 7.41673 4.45312 10.3597 4.45312C13.3026 4.45312 15.6969 6.8474 15.6969 9.79033C15.6969 12.7333 13.3026 15.1275 10.3597 15.1275ZM10.3597 5.63917C8.07072 5.63917 6.20851 7.50138 6.20851 9.79033C6.20851 12.0793 8.07072 13.9415 10.3597 13.9415C12.6486 13.9415 14.5108 12.0793 14.5108 9.79033C14.5108 7.50138 12.6486 5.63917 10.3597 5.63917Z" fill="#84BAF7"/>
<path d="M10.3596 12.7554C8.72468 12.7554 7.39453 11.4253 7.39453 9.79031C7.39453 8.15535 8.72468 6.8252 10.3596 6.8252C11.9946 6.8252 13.3248 8.15535 13.3248 9.79031C13.3248 11.4253 11.9946 12.7554 10.3596 12.7554ZM10.3596 8.01124C9.37867 8.01124 8.58058 8.80933 8.58058 9.79031C8.58058 10.7713 9.37867 11.5694 10.3596 11.5694C11.3406 11.5694 12.1387 10.7713 12.1387 9.79031C12.1387 8.80933 11.3406 8.01124 10.3596 8.01124Z" fill="#84BAF7"/>
</svg>
