<svg width="21" height="20" viewBox="0 0 21 20" fill="none" xmlns="http://www.w3.org/2000/svg">
<path d="M7.72508 11.667H3.83341C2.91675 11.667 2.16675 12.417 2.16675 13.3337V18.3337H7.72508V11.667Z" stroke="#ABB473" stroke-width="1.5" stroke-miterlimit="10" stroke-linecap="round" stroke-linejoin="round"/>
<path d="M11.6082 8.33301H9.38322C8.46655 8.33301 7.71655 9.08301 7.71655 9.99967V18.333H13.2749V9.99967C13.2749 9.08301 12.5332 8.33301 11.6082 8.33301Z" stroke="#ABB473" stroke-width="1.5" stroke-miterlimit="10" stroke-linecap="round" stroke-linejoin="round"/>
<path d="M17.1666 14.167H13.2749V18.3337H18.8332V15.8337C18.8332 14.917 18.0832 14.167 17.1666 14.167Z" stroke="#ABB473" stroke-width="1.5" stroke-miterlimit="10" stroke-linecap="round" stroke-linejoin="round"/>
<path d="M10.9333 1.72534L11.3749 2.60867C11.4333 2.73367 11.5916 2.85034 11.7249 2.867L12.5249 3.00034C13.0333 3.08367 13.1583 3.45866 12.7916 3.81699L12.1666 4.44199C12.0583 4.55032 11.9999 4.75033 12.0333 4.892L12.2083 5.65868C12.3499 6.26701 12.0249 6.50035 11.4916 6.18368L10.7416 5.74201C10.6083 5.65868 10.3833 5.65868 10.2499 5.74201L9.49995 6.18368C8.96661 6.50035 8.64161 6.26701 8.78328 5.65868L8.95828 4.892C8.99162 4.75033 8.93328 4.54199 8.82495 4.44199L8.20828 3.82533C7.84161 3.45866 7.95828 3.09199 8.47495 3.00866L9.27495 2.87534C9.40828 2.85034 9.56661 2.73368 9.62495 2.61701L10.0666 1.73366C10.3083 1.25032 10.6916 1.25034 10.9333 1.72534Z" stroke="#ABB473" stroke-width="1.5" stroke-linecap="round" stroke-linejoin="round"/>
</svg>
