<svg width="18" height="17" viewBox="0 0 18 17" fill="none" xmlns="http://www.w3.org/2000/svg">
<path d="M6.51367 14.584C6.51367 15.4227 7.19599 16.105 8.03467 16.105C8.87335 16.105 9.55567 15.4227 9.55567 14.584C9.55567 13.7453 8.87335 13.063 8.03467 13.063C7.19599 13.063 6.51367 13.7453 6.51367 14.584ZM8.03467 14.077C8.31423 14.077 8.54167 14.3044 8.54167 14.584C8.54167 14.8635 8.31423 15.091 8.03467 15.091C7.75511 15.091 7.52767 14.8635 7.52767 14.584C7.52767 14.3044 7.75511 14.077 8.03467 14.077Z" fill="#0D172B"/>
<path d="M11.6172 14.584C11.6172 15.4227 12.2995 16.105 13.1382 16.105C13.9769 16.105 14.6592 15.4227 14.6592 14.584C14.6592 13.7453 13.9769 13.063 13.1382 13.063C12.2995 13.063 11.6172 13.7453 11.6172 14.584ZM13.1382 14.077C13.4177 14.077 13.6452 14.3044 13.6452 14.584C13.6452 14.8635 13.4177 15.091 13.1382 15.091C12.8586 15.091 12.6312 14.8635 12.6312 14.584C12.6312 14.3044 12.8586 14.077 13.1382 14.077Z" fill="#0D172B"/>
<path d="M17.1941 2.92302H4.36083C4.18723 2.31533 4.02546 1.74911 3.88651 1.26276C3.82435 1.04509 3.62537 0.89502 3.39901 0.89502H0.902508C0.622509 0.89502 0.395508 1.12202 0.395508 1.40202C0.395508 1.68202 0.622509 1.90902 0.902508 1.90902H3.01657C3.58353 3.89362 4.90896 8.53278 5.46463 10.4777L5.27255 10.8618C4.76639 11.8742 5.50354 13.063 6.633 13.063H15.1661C15.4461 13.063 15.6731 12.836 15.6731 12.556C15.6731 12.276 15.4461 12.049 15.1661 12.049H6.633C6.25593 12.049 6.01105 11.6523 6.1795 11.3153L6.31964 11.035H15.1661C15.3925 11.035 15.5914 10.885 15.6536 10.6673L17.6816 3.56931C17.774 3.24601 17.5311 2.92302 17.1941 2.92302ZM14.7837 10.021H6.38876C6.11251 9.05411 5.33937 6.34815 4.65053 3.93702H16.522L14.7837 10.021Z" fill="#0D172B"/>
</svg>
