<svg width="21" height="20" viewBox="0 0 21 20" fill="none" xmlns="http://www.w3.org/2000/svg">
<path d="M15.3929 11.2923C15.0429 11.634 14.8429 12.1256 14.8929 12.6506C14.9679 13.5506 15.7929 14.209 16.6929 14.209H18.2762V15.2006C18.2762 16.9256 16.8679 18.334 15.1429 18.334H5.5762C3.8512 18.334 2.44287 16.9256 2.44287 15.2006V9.59233C2.44287 7.86733 3.8512 6.45898 5.5762 6.45898H15.1429C16.8679 6.45898 18.2762 7.86733 18.2762 9.59233V10.7923H16.5929C16.1262 10.7923 15.7012 10.9756 15.3929 11.2923Z" stroke="#A188F5" stroke-width="1.5" stroke-linecap="round" stroke-linejoin="round"/>
<path d="M2.44287 10.3421V6.53379C2.44287 5.54212 3.0512 4.65875 3.9762 4.30875L10.5929 1.80875C11.6262 1.41708 12.7345 2.18377 12.7345 3.29211V6.45876" stroke="#A188F5" stroke-width="1.5" stroke-linecap="round" stroke-linejoin="round"/>
<path d="M19.1585 11.642V13.3587C19.1585 13.817 18.7919 14.192 18.3252 14.2086H16.6919C15.7919 14.2086 14.9669 13.5503 14.8919 12.6503C14.8419 12.1253 15.0419 11.6336 15.3919 11.292C15.7002 10.9753 16.1252 10.792 16.5919 10.792H18.3252C18.7919 10.8087 19.1585 11.1836 19.1585 11.642Z" stroke="#A188F5" stroke-width="1.5" stroke-linecap="round" stroke-linejoin="round"/>
<path d="M6.19287 10H12.0262" stroke="#A188F5" stroke-width="1.5" stroke-linecap="round" stroke-linejoin="round"/>
</svg>
