<svg width="20" height="20" viewBox="0 0 20 20" fill="none" xmlns="http://www.w3.org/2000/svg">
<path d="M12.1484 0.5C7.89636 0.5 4.43701 3.95934 4.43701 8.21143C4.43701 12.4635 7.89636 15.9229 12.1484 15.9229C16.4005 15.9229 19.8599 12.4635 19.8599 8.21143C19.8599 3.95934 16.4005 0.5 12.1484 0.5ZM17.7703 4.75884C18.3171 5.64881 18.6466 6.65934 18.7271 7.70592L17.1785 6.58071L17.7703 4.75884ZM16.9475 3.68818L16.0838 6.3474L15.0014 6.69894L12.7051 5.03041V3.89251L14.9695 2.24765C15.7164 2.60238 16.3864 3.09327 16.9475 3.68818ZM12.1484 1.6133C12.6755 1.6133 13.1935 1.67449 13.6971 1.79591L12.1461 2.92257L10.5965 1.79673C11.1012 1.67479 11.6203 1.6133 12.1484 1.6133ZM9.32471 2.24891L11.5918 3.89596V5.03041L9.29543 6.69894L8.21316 6.34747L7.34939 3.68818C7.90979 3.09398 8.57892 2.60353 9.32471 2.24891ZM6.52663 4.75884L7.11838 6.58071L5.56975 7.70592C5.65028 6.65938 5.97971 5.64881 6.52663 4.75884ZM7.12826 12.4897H9.03978L9.6312 14.3103C8.6698 13.9106 7.80774 13.2836 7.12826 12.4897ZM9.16061 11.3765H6.36045C5.97325 10.6712 5.71107 9.88809 5.6043 9.05694L7.8739 7.40785L8.95109 7.75765L9.82818 10.4576L9.16061 11.3765ZM13.3699 14.6957C12.9739 14.7701 12.5657 14.8096 12.1484 14.8096C11.7312 14.8096 11.323 14.7702 10.927 14.6957L10.0613 12.0308L10.7287 11.1121H13.5679L14.2355 12.0311L13.3699 14.6957ZM13.4468 9.99886H10.8497L10.0473 7.52879L12.1484 6.00209L14.2495 7.52875L13.4468 9.99886ZM14.6657 14.3103L15.2571 12.4897H17.1686C16.4891 13.2836 15.6271 13.9106 14.6657 14.3103ZM17.9364 11.3765H15.136L14.4684 10.4576L15.3458 7.75769L16.4229 7.40781L18.6925 9.05694C18.5858 9.88809 18.3236 10.6712 17.9364 11.3765Z" fill="#65CDA9"/>
<path d="M5.79753 14.5615C5.58018 14.3441 5.22771 14.3441 5.01032 14.5615L1.02242 18.5494C0.805028 18.7667 0.805028 19.1192 1.02242 19.3366C1.23977 19.5539 1.59224 19.5539 1.80963 19.3366L5.79753 15.3487C6.01492 15.1313 6.01492 14.7788 5.79753 14.5615Z" fill="#65CDA9"/>
<path d="M7.03908 16.1103L4.59981 18.5491C4.38242 18.7665 4.38242 19.1189 4.59981 19.3363C4.81716 19.5537 5.16963 19.5537 5.38702 19.3363L7.82629 16.8975C8.04368 16.6801 8.04368 16.3277 7.82629 16.1103C7.6089 15.8929 7.25643 15.8929 7.03908 16.1103Z" fill="#65CDA9"/>
<path d="M1.80963 15.7592L4.2489 13.3203C4.46629 13.103 4.46629 12.7505 4.2489 12.5331C4.03154 12.3158 3.67907 12.3158 3.46169 12.5331L1.02242 14.972C0.805028 15.1893 0.805028 15.5418 1.02242 15.7592C1.23981 15.9766 1.59228 15.9766 1.80963 15.7592Z" fill="#65CDA9"/>
</svg>
