<svg width="19" height="20" viewBox="0 0 19 20" fill="none" xmlns="http://www.w3.org/2000/svg">
<path d="M1.19477 14.9804C2.10636 14.9804 2.98562 14.8627 3.83255 14.6275C4.67949 14.3922 5.46824 14.0523 6.1988 13.6078C6.92936 13.1634 7.5985 12.6405 8.20623 12.0392C8.81395 11.4379 9.33439 10.7614 9.76756 10.0098C10.2007 9.25817 10.5337 8.45752 10.7664 7.60784C10.9992 6.75817 11.1188 5.86928 11.1252 4.94118C11.1252 4.0719 11.0153 3.21895 10.7955 2.38235C10.5757 1.54575 10.2557 0.751634 9.83544 0C10.663 0.104575 11.455 0.303922 12.2114 0.598039C12.9678 0.892157 13.6693 1.26797 14.3158 1.72549C14.9623 2.18301 15.5474 2.70915 16.0711 3.30392C16.5948 3.89869 17.0408 4.54902 17.4094 5.2549C17.7779 5.96078 18.0656 6.70915 18.2725 7.5C18.4793 8.29085 18.5796 9.11111 18.5731 9.96078C18.5731 10.8824 18.4567 11.7712 18.224 12.6275C17.9912 13.4837 17.655 14.281 17.2154 15.0196C16.7758 15.7582 16.2586 16.4346 15.6638 17.049C15.069 17.6634 14.3998 18.1895 13.6563 18.6275C12.9129 19.0654 12.1209 19.402 11.2804 19.6373C10.4399 19.8725 9.56067 19.9935 8.64262 20C7.75043 20 6.88087 19.8824 6.03394 19.6471C5.187 19.4118 4.39179 19.0752 3.6483 18.6373C2.9048 18.1993 2.2195 17.6634 1.59238 17.0294C0.96526 16.3954 0.435118 15.6863 0.00195312 14.902C0.202373 14.9281 0.39956 14.9477 0.593514 14.9608C0.787469 14.9739 0.987888 14.9804 1.19477 14.9804ZM8.64262 18.7451C9.4443 18.7451 10.2137 18.6405 10.9507 18.4314C11.6877 18.2222 12.3795 17.9281 13.026 17.549C13.6725 17.1699 14.2576 16.7124 14.7813 16.1765C15.305 15.6405 15.7575 15.049 16.139 14.402C16.5204 13.7549 16.8146 13.0556 17.0215 12.3039C17.2283 11.5523 17.3318 10.7712 17.3318 9.96078C17.3318 9.0719 17.2025 8.21242 16.9439 7.38235C16.6853 6.55229 16.3232 5.78105 15.8577 5.06863C15.3922 4.35621 14.8233 3.72222 14.1509 3.16667C13.4786 2.61111 12.7383 2.16667 11.9302 1.83333C12.2211 2.84641 12.3665 3.88235 12.3665 4.94118C12.3665 5.89542 12.2534 6.81699 12.0271 7.70588C11.8008 8.59477 11.4776 9.43791 11.0574 10.2353C10.6371 11.0327 10.1296 11.768 9.53481 12.4412C8.94002 13.1144 8.27734 13.7092 7.54678 14.2255C6.81622 14.7418 6.02747 15.1634 5.18054 15.4902C4.3336 15.817 3.43818 16.0392 2.49427 16.1569C3.32181 16.9935 4.25925 17.634 5.30661 18.0784C6.35396 18.5229 7.46597 18.7451 8.64262 18.7451Z" fill="#0D172B"/>
</svg>
