<svg width="19" height="21" viewBox="0 0 19 21" fill="none" xmlns="http://www.w3.org/2000/svg">
<path d="M1.45649 15.4804C2.36808 15.4804 3.24734 15.3627 4.09427 15.1275C4.94121 14.8922 5.72995 14.5523 6.46052 14.1078C7.19108 13.6634 7.86022 13.1405 8.46794 12.5392C9.07567 11.9379 9.59611 11.2614 10.0293 10.5098C10.4624 9.75817 10.7954 8.95752 11.0281 8.10784C11.2609 7.25817 11.3805 6.36928 11.387 5.44118C11.387 4.5719 11.2771 3.71895 11.0572 2.88235C10.8374 2.04575 10.5174 1.25163 10.0972 0.5C10.9247 0.604575 11.7167 0.803922 12.4731 1.09804C13.2295 1.39216 13.931 1.76797 14.5775 2.22549C15.224 2.68301 15.8091 3.20915 16.3328 3.80392C16.8565 4.39869 17.3026 5.04902 17.6711 5.7549C18.0396 6.46078 18.3273 7.20915 18.5342 8C18.7411 8.79085 18.8413 9.61111 18.8348 10.4608C18.8348 11.3824 18.7184 12.2712 18.4857 13.1275C18.2529 13.9837 17.9168 14.781 17.4771 15.5196C17.0375 16.2582 16.5203 16.9346 15.9255 17.549C15.3307 18.1634 14.6616 18.6895 13.9181 19.1275C13.1746 19.5654 12.3826 19.902 11.5421 20.1373C10.7017 20.3725 9.82239 20.4935 8.90434 20.5C8.01215 20.5 7.14259 20.3824 6.29565 20.1471C5.44872 19.9118 4.65351 19.5752 3.91002 19.1373C3.16652 18.6993 2.48122 18.1634 1.8541 17.5294C1.22698 16.8954 0.696837 16.1863 0.263672 15.402C0.464091 15.4281 0.661278 15.4477 0.855233 15.4608C1.04919 15.4739 1.24961 15.4804 1.45649 15.4804ZM8.90434 19.2451C9.70602 19.2451 10.4754 19.1405 11.2124 18.9314C11.9494 18.7222 12.6412 18.4281 13.2877 18.049C13.9342 17.6699 14.5193 17.2124 15.043 16.6765C15.5667 16.1405 16.0192 15.549 16.4007 14.902C16.7821 14.2549 17.0763 13.5556 17.2832 12.8039C17.4901 12.0523 17.5935 11.2712 17.5935 10.4608C17.5935 9.5719 17.4642 8.71242 17.2056 7.88235C16.947 7.05229 16.5849 6.28105 16.1194 5.56863C15.654 4.85621 15.085 4.22222 14.4126 3.66667C13.7403 3.11111 13 2.66667 12.1919 2.33333C12.4828 3.34641 12.6283 4.38235 12.6283 5.44118C12.6283 6.39542 12.5151 7.31699 12.2888 8.20588C12.0626 9.09477 11.7393 9.93791 11.3191 10.7353C10.8988 11.5327 10.3913 12.268 9.79653 12.9412C9.20174 13.6144 8.53906 14.2092 7.8085 14.7255C7.07794 15.2418 6.28919 15.6634 5.44226 15.9902C4.59532 16.317 3.6999 16.5392 2.75599 16.6569C3.58353 17.4935 4.52097 18.134 5.56833 18.5784C6.61568 19.0229 7.72768 19.2451 8.90434 19.2451Z" fill="white"/>
</svg>
