<svg width="61" height="61" viewBox="0 0 61 61" fill="none" xmlns="http://www.w3.org/2000/svg">
<path d="M26.9391 58.6548C25.6988 59.8818 24.0245 60.57 22.2798 60.57C20.5351 60.57 18.8608 59.8818 17.6205 58.6548L2.41526 43.4495C1.18825 42.2092 0.500027 40.5349 0.500027 38.7902C0.500027 37.0455 1.18825 35.3712 2.41526 34.1309L34.4983 1.93923C35.235 1.1927 36.1411 0.635029 37.1394 0.313587C38.1378 -0.00785564 39.199 -0.0835693 40.2329 0.0928776L53.2659 2.26505C54.6217 2.49707 55.8722 3.144 56.8448 4.11663C57.8174 5.08927 58.4644 6.3397 58.6964 7.6955L60.8685 20.7286C61.045 21.7624 60.9693 22.8236 60.6478 23.822C60.3264 24.8204 59.7687 25.7264 59.0222 26.4631L26.9391 58.6548ZM46.2064 19.1863C46.2064 18.3271 45.9516 17.4871 45.4742 16.7727C44.9968 16.0583 44.3183 15.5015 43.5245 15.1727C42.7307 14.8438 41.8572 14.7578 41.0145 14.9254C40.1717 15.0931 39.3976 15.5068 38.7901 16.1144C38.1825 16.722 37.7687 17.496 37.6011 18.3388C37.4335 19.1815 37.5195 20.055 37.8483 20.8488C38.1772 21.6427 38.734 22.3211 39.4484 22.7985C40.1628 23.2759 41.0028 23.5307 41.862 23.5307C43.0142 23.5307 44.1192 23.073 44.9339 22.2582C45.7486 21.4435 46.2064 20.3385 46.2064 19.1863Z" fill="#EF4444"/>
</svg>
