<svg width="61" height="60" viewBox="0 0 61 60" fill="none" xmlns="http://www.w3.org/2000/svg">
<path d="M0.5 2C0.5 0.895432 1.39543 0 2.5 0H18.9706C20.0752 0 20.9706 0.89543 20.9706 2V15.6471C20.9706 16.7516 20.0752 17.6471 18.9706 17.6471H2.5C1.39543 17.6471 0.5 16.7516 0.5 15.6471V2Z" fill="#10B981"/>
<path d="M7.3897 46.0528C7.07576 45.9756 6.74777 45.9755 6.43382 46.0528L2.02214 47.1383C1.1283 47.3582 0.5 48.1599 0.5 49.0804V57.9999C0.5 59.1045 1.39543 59.9999 2.5 59.9999H18.9706C20.0752 59.9999 20.9706 59.1045 20.9706 57.9999V47.7062C20.9706 46.1415 19.2549 45.1829 17.9223 46.0029L15.5685 47.4516C15.1122 47.7324 14.5624 47.8184 14.0422 47.6903L7.3897 46.0528Z" fill="#10B981"/>
<path d="M0.5 41.3253C0.5 42.6234 1.71738 43.5775 2.97786 43.2674L6.43385 42.417C6.74778 42.3398 7.07575 42.3398 7.38968 42.417L13.4505 43.9087C13.9707 44.0368 14.5204 43.9508 14.9766 43.6701L20.0187 40.5675C20.6103 40.2035 20.9706 39.5587 20.9706 38.8641V23.6465C20.9706 22.5419 20.0752 21.6465 18.9706 21.6465H2.5C1.39543 21.6465 0.5 22.5419 0.5 23.6465V41.3253ZM-nan -nanL10.7353 28.2347C12.7459 28.2347 14.3824 29.8712 14.3824 31.8818C14.3824 33.8924 12.7459 35.5288 10.7353 35.5288C8.72471 35.5288 7.08824 33.8924 7.08824 31.8818C7.08824 29.8712 8.72471 28.2347 10.7353 28.2347L-nan -nanZ" fill="#10B981"/>
<path d="M24.9707 41.5293C24.9707 40.4247 25.8661 39.5293 26.9707 39.5293H58.5001C59.6047 39.5293 60.5001 40.4247 60.5001 41.5293V57.9999C60.5001 59.1045 59.6047 59.9999 58.5001 59.9999H26.9707C25.8661 59.9999 24.9707 59.1045 24.9707 57.9999V41.5293Z" fill="#10B981"/>
<path d="M42.7354 19.7652C44.3597 19.7652 45.6765 18.4484 45.6765 16.824C45.6765 15.1996 44.3597 13.8828 42.7354 13.8828C41.111 13.8828 39.7942 15.1996 39.7942 16.824C39.7942 18.4484 41.111 19.7652 42.7354 19.7652Z" fill="#10B981"/>
<path d="M26.9707 0C25.8661 0 24.9707 0.895431 24.9707 2V33.5294C24.9707 34.634 25.8661 35.5294 26.9707 35.5294H31.4413C32.5459 35.5294 33.4413 34.634 33.4413 33.5294V28.3576C33.4413 26.0284 34.3727 23.913 35.8828 22.3636C36.7434 21.4806 36.9842 20.0466 36.5907 18.8781C35.2631 14.9357 38.1005 10.3529 42.7354 10.3529C47.3732 10.3529 50.206 14.9372 48.8798 18.878C48.4865 20.0466 48.7275 21.4806 49.588 22.3636C51.0981 23.9129 52.0295 26.0284 52.0295 28.3576V33.5294C52.0295 34.634 52.925 35.5294 54.0295 35.5294H58.5001C59.6047 35.5294 60.5001 34.634 60.5001 33.5294V2C60.5001 0.895431 59.6047 0 58.5001 0H26.9707Z" fill="#10B981"/>
<path d="M36.9707 28.3575V35.5292H48.5001V28.3575C48.5001 25.5657 46.2284 23.2939 43.4366 23.2939H42.0342C39.2425 23.2939 36.9707 25.5657 36.9707 28.3575Z" fill="#10B981"/>
</svg>
