<svg width="19" height="18" viewBox="0 0 19 18" fill="none" xmlns="http://www.w3.org/2000/svg">
<path d="M9.28784 13.875C11.9802 13.875 14.1628 11.6924 14.1628 9C14.1628 6.30761 11.9802 4.125 9.28784 4.125C6.59545 4.125 4.41284 6.30761 4.41284 9C4.41284 11.6924 6.59545 13.875 9.28784 13.875Z" stroke="#0D172B" stroke-width="1.5" stroke-linecap="round" stroke-linejoin="round"/>
<path d="M14.6428 14.355L14.5453 14.2575M14.5453 3.7425L14.6428 3.645L14.5453 3.7425ZM3.93284 14.355L4.03034 14.2575L3.93284 14.355ZM9.28784 1.56V1.5V1.56ZM9.28784 16.5V16.44V16.5ZM1.84784 9H1.78784H1.84784ZM16.7878 9H16.7278H16.7878ZM4.03034 3.7425L3.93284 3.645L4.03034 3.7425Z" stroke="#0D172B" stroke-width="2" stroke-linecap="round" stroke-linejoin="round"/>
</svg>
