<svg width="61" height="60" viewBox="0 0 61 60" fill="none" xmlns="http://www.w3.org/2000/svg">
<path d="M24.9925 9.11074C24.9925 5.87988 27.621 3.25137 30.8519 3.25137H32.8797L32.268 1.55098C31.924 0.594727 31.0228 0 30.0624 0C29.7962 0 29.5255 0.0457031 29.2609 0.142031L8.77035 7.59996C7.55219 8.0434 6.92523 9.39141 7.37125 10.6086L8.45395 13.5639H24.9925V9.11074Z" fill="#8358FF"/>
<path d="M30.8516 6.7666C29.5571 6.7666 28.5078 7.8159 28.5078 9.11035V13.5635H49.0156V9.11035C49.0156 7.8159 47.9663 6.7666 46.6719 6.7666H30.8516Z" fill="#8358FF"/>
<path d="M55.2266 47.3721H47.0234C42.1771 47.3721 38.2344 43.4293 38.2344 38.583C38.2344 33.7367 42.1771 29.7939 47.0234 29.7939H55.2266V21.7666C55.2266 19.1778 53.1279 17.0791 50.5391 17.0791H5.1875C2.59871 17.0791 0.5 19.1778 0.5 21.7666V55.3121C0.5 57.9009 2.59871 59.9996 5.1875 59.9996H50.5391C53.1279 59.9996 55.2266 57.9009 55.2266 55.3121V47.3721Z" fill="#8358FF"/>
<path d="M58.7422 33.3096H47.0234C44.1157 33.3096 41.75 35.6752 41.75 38.583C41.75 41.4908 44.1157 43.8564 47.0234 43.8564H58.7422C59.7114 43.8564 60.5 43.0679 60.5 42.0986V35.0674C60.5 34.0981 59.7114 33.3096 58.7422 33.3096ZM47.0234 40.3408C46.0527 40.3408 45.2656 39.5538 45.2656 38.583C45.2656 37.6122 46.0527 36.8252 47.0234 36.8252C47.9942 36.8252 48.7812 37.6122 48.7812 38.583C48.7812 39.5538 47.9942 40.3408 47.0234 40.3408Z" fill="#8358FF"/>
</svg>
